<svg width="164" height="35" viewBox="0 0 164 35" fill="none" xmlns="http://www.w3.org/2000/svg">
<path d="M34 17.5C34 26.8888 26.3888 34.5 17 34.5C7.61116 34.5 0 26.8888 0 17.5C0 8.11116 7.61116 0.5 17 0.5C26.3888 0.5 34 8.11116 34 17.5ZM6.8 17.5C6.8 23.1333 11.3667 27.7 17 27.7C22.6333 27.7 27.2 23.1333 27.2 17.5C27.2 11.8667 22.6333 7.3 17 7.3C11.3667 7.3 6.8 11.8667 6.8 17.5Z" fill="white"/>
<circle cx="17" cy="17.5" r="6" fill="white"/>
<path d="M51.5256 26.5H47.571L53.5966 9.04545H58.3523L64.3693 26.5H60.4148L56.0426 13.0341H55.9062L51.5256 26.5ZM51.2784 19.6392H60.6193V22.5199H51.2784V19.6392ZM72.5447 13.4091V16.1364H64.6612V13.4091H72.5447ZM66.451 10.2727H70.0817V22.4773C70.0817 22.8125 70.1328 23.0739 70.2351 23.2614C70.3374 23.4432 70.4794 23.571 70.6612 23.6449C70.8487 23.7187 71.0646 23.7557 71.3089 23.7557C71.4794 23.7557 71.6499 23.7415 71.8203 23.7131C71.9908 23.679 72.1214 23.6534 72.2124 23.6364L72.7834 26.3381C72.6016 26.3949 72.3459 26.4602 72.0163 26.5341C71.6868 26.6136 71.2862 26.6619 70.8146 26.679C69.9396 26.7131 69.1726 26.5966 68.5135 26.3295C67.8601 26.0625 67.3516 25.6477 66.9879 25.0852C66.6243 24.5227 66.4453 23.8125 66.451 22.9545V10.2727ZM81.8729 13.4091V16.1364H73.9893V13.4091H81.8729ZM75.7791 10.2727H79.4098V22.4773C79.4098 22.8125 79.4609 23.0739 79.5632 23.2614C79.6655 23.4432 79.8075 23.571 79.9893 23.6449C80.1768 23.7187 80.3928 23.7557 80.6371 23.7557C80.8075 23.7557 80.978 23.7415 81.1484 23.7131C81.3189 23.679 81.4496 23.6534 81.5405 23.6364L82.1115 26.3381C81.9297 26.3949 81.674 26.4602 81.3445 26.5341C81.0149 26.6136 80.6143 26.6619 80.1428 26.679C79.2678 26.7131 78.5007 26.5966 77.8416 26.3295C77.1882 26.0625 76.6797 25.6477 76.3161 25.0852C75.9524 24.5227 75.7734 23.8125 75.7791 22.9545V10.2727ZM90.0632 26.7557C88.7166 26.7557 87.5575 26.483 86.5859 25.9375C85.62 25.3864 84.8757 24.608 84.353 23.6023C83.8303 22.5909 83.5689 21.3949 83.5689 20.0142C83.5689 18.6676 83.8303 17.4858 84.353 16.4688C84.8757 15.4517 85.6115 14.6591 86.5604 14.0909C87.5149 13.5227 88.6342 13.2386 89.9183 13.2386C90.782 13.2386 91.5859 13.3778 92.3303 13.6562C93.0803 13.929 93.7337 14.3409 94.2905 14.892C94.853 15.4432 95.2905 16.1364 95.603 16.9716C95.9155 17.8011 96.0717 18.7727 96.0717 19.8864V20.8835H85.0178V18.6335H92.6541C92.6541 18.1108 92.5405 17.6477 92.3132 17.2443C92.0859 16.8409 91.7706 16.5256 91.3672 16.2983C90.9695 16.0653 90.5064 15.9489 89.978 15.9489C89.4268 15.9489 88.9382 16.0767 88.5121 16.3324C88.0916 16.5824 87.7621 16.9205 87.5234 17.3466C87.2848 17.767 87.1626 18.2358 87.157 18.7528V20.892C87.157 21.5398 87.2763 22.0994 87.5149 22.571C87.7592 23.0426 88.103 23.4062 88.5462 23.6619C88.9893 23.9176 89.5149 24.0455 90.1229 24.0455C90.5263 24.0455 90.8956 23.9886 91.2308 23.875C91.5661 23.7614 91.853 23.5909 92.0916 23.3636C92.3303 23.1364 92.5121 22.858 92.6371 22.5284L95.995 22.75C95.8246 23.5568 95.4751 24.2614 94.9467 24.8636C94.424 25.4602 93.7479 25.9261 92.9183 26.2614C92.0945 26.5909 91.1428 26.7557 90.0632 26.7557ZM102.072 18.9318V26.5H98.4411V13.4091H101.901V15.7188H102.055C102.344 14.9574 102.83 14.3551 103.512 13.9119C104.194 13.4631 105.021 13.2386 105.992 13.2386C106.901 13.2386 107.694 13.4375 108.37 13.8352C109.046 14.233 109.572 14.8011 109.947 15.5398C110.322 16.2727 110.509 17.1477 110.509 18.1648V26.5H106.879V18.8125C106.884 18.0114 106.68 17.3864 106.265 16.9375C105.85 16.483 105.279 16.2557 104.552 16.2557C104.063 16.2557 103.631 16.3608 103.256 16.571C102.887 16.7812 102.597 17.0881 102.387 17.4915C102.183 17.8892 102.077 18.3693 102.072 18.9318ZM118.195 26.7131C117.2 26.7131 116.3 26.4574 115.493 25.946C114.692 25.429 114.055 24.6705 113.584 23.6705C113.118 22.6648 112.885 21.4318 112.885 19.9716C112.885 18.4716 113.126 17.2244 113.609 16.2301C114.092 15.2301 114.734 14.483 115.536 13.9886C116.342 13.4886 117.226 13.2386 118.186 13.2386C118.919 13.2386 119.53 13.3636 120.018 13.6136C120.513 13.858 120.911 14.1648 121.212 14.5341C121.518 14.8977 121.751 15.2557 121.911 15.608H122.021V9.04545H125.643V26.5H122.064V24.4034H121.911C121.74 24.767 121.499 25.1278 121.186 25.4858C120.879 25.8381 120.479 26.1307 119.984 26.3636C119.496 26.5966 118.899 26.7131 118.195 26.7131ZM119.345 23.8239C119.93 23.8239 120.425 23.6648 120.828 23.3466C121.237 23.0227 121.55 22.571 121.766 21.9915C121.987 21.4119 122.098 20.733 122.098 19.9545C122.098 19.1761 121.99 18.5 121.774 17.9261C121.558 17.3523 121.246 16.9091 120.837 16.5966C120.428 16.2841 119.93 16.1278 119.345 16.1278C118.749 16.1278 118.246 16.2898 117.837 16.6136C117.428 16.9375 117.118 17.3864 116.908 17.9602C116.697 18.5341 116.592 19.1989 116.592 19.9545C116.592 20.7159 116.697 21.3892 116.908 21.9744C117.124 22.554 117.433 23.0085 117.837 23.3381C118.246 23.6619 118.749 23.8239 119.345 23.8239ZM128.629 26.5V13.4091H132.259V26.5H128.629ZM130.452 11.7216C129.913 11.7216 129.45 11.5426 129.063 11.1847C128.683 10.821 128.492 10.3864 128.492 9.88068C128.492 9.38068 128.683 8.9517 129.063 8.59375C129.45 8.23011 129.913 8.04829 130.452 8.04829C130.992 8.04829 131.452 8.23011 131.833 8.59375C132.219 8.9517 132.413 9.38068 132.413 9.88068C132.413 10.3864 132.219 10.821 131.833 11.1847C131.452 11.5426 130.992 11.7216 130.452 11.7216ZM142.207 13.4091V16.1364H134.128V13.4091H142.207ZM135.977 26.5V12.4631C135.977 11.5142 136.162 10.7273 136.531 10.1023C136.906 9.47727 137.418 9.00852 138.065 8.69602C138.713 8.38352 139.449 8.22727 140.273 8.22727C140.83 8.22727 141.338 8.26989 141.798 8.35511C142.264 8.44034 142.611 8.51705 142.838 8.58523L142.19 11.3125C142.048 11.267 141.872 11.2244 141.662 11.1847C141.457 11.1449 141.247 11.125 141.031 11.125C140.497 11.125 140.125 11.25 139.915 11.5C139.705 11.7443 139.599 12.0881 139.599 12.5312V26.5H135.977ZM146.667 31.4091C146.207 31.4091 145.775 31.3722 145.371 31.2983C144.974 31.2301 144.644 31.142 144.383 31.0341L145.201 28.3239C145.627 28.4545 146.011 28.5256 146.352 28.5369C146.698 28.5483 146.996 28.4688 147.246 28.2983C147.502 28.1278 147.71 27.8381 147.869 27.429L148.082 26.875L143.386 13.4091H147.204L149.914 23.0227H150.05L152.786 13.4091H156.63L151.542 27.9148C151.298 28.6193 150.965 29.233 150.545 29.7557C150.13 30.2841 149.604 30.6903 148.968 30.9744C148.332 31.2642 147.565 31.4091 146.667 31.4091ZM159.79 26.7216C159.227 26.7216 158.744 26.5227 158.341 26.125C157.943 25.7216 157.744 25.2386 157.744 24.6761C157.744 24.1193 157.943 23.642 158.341 23.2443C158.744 22.8466 159.227 22.6477 159.79 22.6477C160.335 22.6477 160.813 22.8466 161.222 23.2443C161.631 23.642 161.835 24.1193 161.835 24.6761C161.835 25.0511 161.739 25.3949 161.545 25.7074C161.358 26.0142 161.111 26.2614 160.804 26.4489C160.497 26.6307 160.159 26.7216 159.79 26.7216Z" fill="white"/>
</svg>
